<svg width="32" height="32" viewBox="0 0 32 32" fill="none" xmlns="http://www.w3.org/2000/svg">
<path d="M15.2727 23.2727C15.2727 23.6744 15.5983 24 16 24C16.4017 24 16.7273 23.6744 16.7273 23.2727V16.7273H23.2727C23.6744 16.7273 24 16.4017 24 16C24 15.5983 23.6744 15.2727 23.2727 15.2727H16.7273V8.72727C16.7273 8.32561 16.4017 8 16 8C15.5983 8 15.2727 8.32561 15.2727 8.72727V15.2727H8.72727C8.32561 15.2727 8 15.5983 8 16C8 16.4017 8.32561 16.7273 8.72727 16.7273H15.2727V23.2727Z" fill="white"/>
</svg>
